<svg width="80" height="72" viewBox="0 0 80 72" fill="none" xmlns="http://www.w3.org/2000/svg">
<g clip-path="url(#clip0_44_27)">
<path fill-rule="evenodd" clip-rule="evenodd" d="M6.6412 33.0259C9.92465 49.3541 24.7005 64.0386 41.0082 68.2395L36.2382 44.519L27.8984 43.7527L26.064 34.6306L34.4039 35.397L32.9361 28.0977C31.285 19.8871 35.7417 15.8212 43.3421 16.5196C45.7496 16.7408 48.4193 17.3434 50.8999 17.9286L52.5879 26.3226L48.3262 25.931C44.248 25.5563 43.7257 27.4774 44.2397 30.0336L45.5237 36.4187L54.4196 37.2361L54.7722 46.222L47.3581 45.5408L52.128 69.2613C67.3284 67.9556 76.6441 55.4875 73.3601 39.1565C69.7074 20.9919 51.7072 4.75122 33.3595 3.0653C15.0118 1.37939 2.98846 14.8613 6.6412 33.0259Z" fill="#2D50FF"/>
</g>
<defs>
<clipPath id="clip0_44_27">
<rect width="67" height="67" fill="white" transform="matrix(0.995805 0.0915016 0.197144 0.980375 0 0)"/>
</clipPath>
</defs>
</svg>
