<svg width="106" height="86" viewBox="0 0 106 86" fill="none" xmlns="http://www.w3.org/2000/svg">
<g clip-path="url(#clip0_44_348)">
<path fill-rule="evenodd" clip-rule="evenodd" d="M8.98077 43.0226C4.5216 64.2932 16.5979 81.9807 36.4898 85.5674L42.9678 54.6669H32.0393L34.5305 42.7837H45.459L47.4523 33.275C49.6946 22.5791 57.9814 16.6393 67.9408 16.6393C71.0955 16.6393 74.3985 17.1135 77.4538 17.5877L75.1614 28.5225H69.577C64.233 28.5225 62.472 31.1358 61.774 34.4658L60.0302 42.7837H71.6872L67.2544 54.6669H57.539L51.061 85.5674C72.4568 81.9807 91.9483 64.2968 96.4082 43.0226C101.369 19.3596 85.7563 0 61.7137 0C37.6712 0 13.9415 19.3596 8.98077 43.0226Z" fill="#2D50FF"/>
</g>
<defs>
<clipPath id="clip0_44_348">
<rect width="87.4275" height="87.4275" fill="white" transform="matrix(1 0 -0.205179 0.978724 18 0)"/>
</clipPath>
</defs>
</svg>
