<svg width="78" height="61" viewBox="0 0 78 61" fill="none" xmlns="http://www.w3.org/2000/svg">
<g clip-path="url(#clip0_44_23)">
<path d="M30.9973 0.405777C13.8778 0.181671 3.40698 13.4544 7.60977 30.0515C11.8126 46.6486 29.0974 60.2846 46.2169 60.5087C63.3364 60.7328 73.8073 47.4601 69.6045 30.863C65.4017 14.2659 48.1168 0.629884 30.9973 0.405777Z" fill="#40B3E0"/>
<path d="M50.4577 17.8895L51.7739 44.8795C51.7739 44.8795 51.4749 46.7462 49.1175 45.8175L33.9365 36.1539L28.7396 33.9163L20.2727 31.2614C20.2727 31.2614 18.968 30.833 18.6236 29.9306C18.2793 29.0282 19.6272 28.5596 19.6272 28.5596L47.7216 17.1432C47.7216 17.1432 50.0013 16.0882 50.4575 17.8899" fill="white"/>
<path d="M35.0353 44.3576C35.0353 44.3576 34.6538 44.3189 33.8276 42.8863C33.0022 41.454 28.7394 33.9163 28.7394 33.9163L44.5892 22.6017C44.5892 22.6017 45.5118 21.9778 45.6346 22.6154C45.6346 22.6154 45.8566 22.7306 45.4087 23.2484C44.9614 23.7665 33.9184 35.9296 33.9184 35.9296" fill="#D2E5F1"/>
</g>
<defs>
<clipPath id="clip0_44_23">
<rect width="62" height="62" fill="white" transform="matrix(0.999914 0.0130896 0.245477 0.969403 0 0)"/>
</clipPath>
</defs>
</svg>
