<svg width="108" height="98" viewBox="0 0 108 98" fill="none" xmlns="http://www.w3.org/2000/svg">
<g clip-path="url(#clip0_44_389)">
<path d="M60.6569 2.4515C34.8292 3.80507 10.7822 25.6363 6.94604 51.2134C3.10982 76.7905 20.9372 96.4272 46.7649 95.0736C72.5926 93.72 96.6396 71.8888 100.476 46.3117C104.312 20.7346 86.4847 1.09793 60.6569 2.4515Z" fill="#40B3E0"/>
<path d="M79.4167 27.8982L64.8085 70.0409C64.8085 70.0409 63.2067 72.9944 60.2024 71.7745L43.1222 58.1504L36.6164 55.1631L25.4078 51.8478C25.4078 51.8478 23.6925 51.3067 23.7254 49.9276C23.7582 48.5486 26.0908 47.6804 26.0908 47.6804L75.7259 27.0019C75.7259 27.0019 79.8327 25.1225 79.4162 27.899" fill="white"/>
<path d="M39.7417 70.8905C39.7417 70.8905 39.1869 70.8679 38.8152 68.7063C38.4444 66.5451 36.6163 55.1635 36.6163 55.1635L67.6169 35.8636C67.6169 35.8636 69.4001 34.7944 69.1941 35.7809C69.1941 35.7809 69.46 35.9393 68.462 36.7949C67.4648 37.6509 43.2328 57.8011 43.2328 57.8011" fill="#D2E5F1"/>
</g>
<defs>
<clipPath id="clip0_44_389">
<rect width="93.6581" height="93.6581" fill="white" transform="matrix(0.99863 -0.052336 -0.148327 0.988938 13.8921 4.90234)"/>
</clipPath>
</defs>
</svg>
