<svg width="65" height="65" viewBox="0 0 65 65" fill="none" xmlns="http://www.w3.org/2000/svg">
<path d="M30.804 6.4575C31.7215 5.47575 33.2784 5.47575 34.196 6.4575L39.7751 12.4269C40.2327 12.9166 40.8797 13.1845 41.5495 13.1619L49.7155 12.8859C51.0586 12.8405 52.1594 13.9414 52.114 15.2844L51.8381 23.4505C51.8154 24.1203 52.0834 24.7672 52.5731 25.2249L58.5425 30.804C59.5242 31.7216 59.5242 33.2784 58.5425 34.196L52.5731 39.7751C52.0834 40.2328 51.8154 40.8797 51.8381 41.5495L52.114 49.7156C52.1594 51.0586 51.0585 52.1595 49.7155 52.1141L41.5495 51.8381C40.8797 51.8155 40.2327 52.0834 39.7751 52.5731L34.196 58.5425C33.2784 59.5242 31.7215 59.5242 30.804 58.5425L25.2248 52.5731C24.7672 52.0834 24.1203 51.8155 23.4504 51.8381L15.2844 52.1141C13.9414 52.1595 12.8405 51.0586 12.8859 49.7156L13.1619 41.5495C13.1845 40.8797 12.9165 40.2328 12.4269 39.7751L6.45747 34.196C5.47572 33.2784 5.47572 31.7216 6.45747 30.804L12.4269 25.2249C12.9165 24.7672 13.1845 24.1203 13.1619 23.4505L12.8859 15.2844C12.8405 13.9414 13.9414 12.8405 15.2844 12.8859L23.4504 13.1619C24.1203 13.1845 24.7672 12.9166 25.2248 12.4269L30.804 6.4575Z" fill="#2D50FF" fill-opacity="0.1"/>
<path d="M44.1072 32.3249C44.1072 38.832 38.8321 44.1071 32.3249 44.1071C26.8052 44.1071 22.1719 40.3115 20.8929 35.1879C21.8095 35.4167 22.7685 35.5382 23.756 35.5382C30.2631 35.5382 35.5382 30.2631 35.5382 23.7559C35.5382 22.7685 35.4168 21.8094 35.188 20.8929C40.3116 22.1719 44.1072 26.8051 44.1072 32.3249Z" fill="#2D50FF"/>
</svg>
